<svg width="332" height="115" viewBox="0 0 332 115" fill="none" xmlns="http://www.w3.org/2000/svg">
<path d="M41.3333 30.8C38.3878 30.8 36 28.3823 36 25.4C36 22.4177 38.3878 20 41.3333 20C44.2789 20 46.6667 22.4177 46.6667 25.4C46.6667 28.3823 44.2789 30.8 41.3333 30.8Z" fill="black"/>
<path d="M49.3333 33.5C50.0697 33.5 50.6667 34.1044 50.6667 34.85V40.925H60V47H32V34.85C32 34.1044 32.597 33.5 33.3333 33.5H49.3333Z" fill="black"/>
<path fill-rule="evenodd" clip-rule="evenodd" d="M61.999 38.0003C61.9992 37.4479 61.5514 37 60.999 37H43C42.4475 37 41.9996 37.4481 42 38.0007L42.0094 51.9933C42.0097 52.5453 42.4573 52.9926 43.0094 52.9926H46.0133C46.3871 52.9926 46.7297 52.7841 46.9015 52.452L48.728 48.9206C48.8998 48.5885 49.2424 48.38 49.6162 48.38H54.2013C54.5308 48.38 54.8391 48.5423 55.0256 48.8139L57.598 52.5597C57.7842 52.8307 58.0917 52.993 58.4205 52.9936L60.9932 52.9982C61.5461 52.9992 61.9949 52.5514 61.995 51.9985L61.999 38.0003ZM47.9996 41C47.9996 40.4477 47.5519 40 46.9996 40C46.4473 40 45.9996 40.4477 45.9996 41V42H44.9996C44.4473 42 43.9996 42.4477 43.9996 43C43.9996 43.5523 44.4473 44 44.9996 44H45.9996V45C45.9996 45.5523 46.4473 46 46.9996 46C47.5519 46 47.9996 45.5523 47.9996 45V44H48.9996C49.5519 44 49.9996 43.5523 49.9996 43C49.9996 42.4477 49.5519 42 48.9996 42H47.9996V41ZM53.9996 43C53.9996 42.4477 54.4473 42 54.9996 42H58.9996C59.5519 42 59.9996 42.4477 59.9996 43C59.9996 43.5523 59.5519 44 58.9996 44H54.9996C54.4473 44 53.9996 43.5523 53.9996 43Z" fill="#FF1E46"/>
<path d="M23.1875 66.8203H23.9395C24.2975 66.8203 24.5628 66.7308 24.7354 66.5518C24.9079 66.3727 24.9941 66.1351 24.9941 65.8389C24.9941 65.5524 24.9079 65.3294 24.7354 65.1699C24.5661 65.0104 24.3317 64.9307 24.0322 64.9307C23.762 64.9307 23.5358 65.0055 23.3535 65.1553C23.1712 65.3018 23.0801 65.4938 23.0801 65.7314H21.6689C21.6689 65.3604 21.7682 65.0283 21.9668 64.7354C22.1686 64.4391 22.4486 64.208 22.8066 64.042C23.168 63.876 23.5651 63.793 23.998 63.793C24.75 63.793 25.3392 63.9736 25.7656 64.335C26.1921 64.693 26.4053 65.1878 26.4053 65.8193C26.4053 66.1449 26.306 66.4443 26.1074 66.7178C25.9089 66.9912 25.6484 67.2012 25.3262 67.3477C25.7266 67.4909 26.0244 67.7057 26.2197 67.9922C26.4183 68.2786 26.5176 68.6172 26.5176 69.0078C26.5176 69.6393 26.2865 70.1455 25.8242 70.5264C25.3652 70.9072 24.7565 71.0977 23.998 71.0977C23.2884 71.0977 22.7074 70.9105 22.2549 70.5361C21.8057 70.1618 21.5811 69.667 21.5811 69.0518H22.9922C22.9922 69.3187 23.0915 69.5368 23.29 69.7061C23.4919 69.8753 23.7393 69.96 24.0322 69.96C24.3675 69.96 24.6296 69.8721 24.8184 69.6963C25.0104 69.5173 25.1064 69.2812 25.1064 68.9883C25.1064 68.2786 24.7158 67.9238 23.9346 67.9238H23.1875V66.8203ZM27.626 70.3066C27.626 70.082 27.7008 69.8997 27.8506 69.7598C28.0036 69.6198 28.194 69.5498 28.4219 69.5498C28.653 69.5498 28.8434 69.6198 28.9932 69.7598C29.1462 69.8997 29.2227 70.082 29.2227 70.3066C29.2227 70.528 29.1478 70.7087 28.998 70.8486C28.8483 70.9854 28.6562 71.0537 28.4219 71.0537C28.1908 71.0537 28.0003 70.9854 27.8506 70.8486C27.7008 70.7087 27.626 70.528 27.626 70.3066ZM30.6143 67.5039L31.0244 63.8906H35.0088V65.0674H32.1816L32.0059 66.5957C32.3411 66.4167 32.6976 66.3271 33.0752 66.3271C33.7523 66.3271 34.2829 66.5371 34.667 66.957C35.0511 67.377 35.2432 67.9645 35.2432 68.7197C35.2432 69.1787 35.1455 69.5905 34.9502 69.9551C34.7581 70.3164 34.4814 70.598 34.1201 70.7998C33.7588 70.9984 33.3324 71.0977 32.8408 71.0977C32.4111 71.0977 32.0124 71.0114 31.6445 70.8389C31.2767 70.6631 30.9854 70.4173 30.7705 70.1016C30.5589 69.7858 30.4466 69.4261 30.4336 69.0225H31.8301C31.8594 69.3187 31.9619 69.5498 32.1377 69.7158C32.3167 69.8786 32.5495 69.96 32.8359 69.96C33.1549 69.96 33.4007 69.846 33.5732 69.6182C33.7458 69.387 33.832 69.0615 33.832 68.6416C33.832 68.238 33.7327 67.9287 33.5342 67.7139C33.3356 67.499 33.054 67.3916 32.6895 67.3916C32.3542 67.3916 32.0824 67.4795 31.874 67.6553L31.7373 67.7822L30.6143 67.5039ZM44.3691 68.6318C44.3138 69.3968 44.0306 69.999 43.5195 70.4385C43.0117 70.8779 42.3411 71.0977 41.5078 71.0977C40.5964 71.0977 39.8786 70.7917 39.3545 70.1797C38.8337 69.5645 38.5732 68.7214 38.5732 67.6504V67.2158C38.5732 66.5322 38.6937 65.93 38.9346 65.4092C39.1755 64.8883 39.5189 64.4896 39.9648 64.2129C40.4141 63.9329 40.9349 63.793 41.5273 63.793C42.3477 63.793 43.0085 64.0127 43.5098 64.4521C44.0111 64.8916 44.3008 65.5085 44.3789 66.3027H42.9141C42.8783 65.8438 42.7497 65.5117 42.5283 65.3066C42.3102 65.0983 41.9766 64.9941 41.5273 64.9941C41.0391 64.9941 40.6729 65.1699 40.4287 65.5215C40.1878 65.8698 40.0641 66.4118 40.0576 67.1475V67.6846C40.0576 68.4528 40.1732 69.0143 40.4043 69.3691C40.6387 69.724 41.0065 69.9014 41.5078 69.9014C41.9603 69.9014 42.2972 69.7988 42.5186 69.5938C42.7432 69.3854 42.8717 69.0648 42.9043 68.6318H44.3691ZM48.207 67.04C48.015 67.014 47.8457 67.001 47.6992 67.001C47.1654 67.001 46.8154 67.1816 46.6494 67.543V71H45.2383V65.7168H46.5713L46.6104 66.3467C46.8936 65.8617 47.2858 65.6191 47.7871 65.6191C47.9434 65.6191 48.0898 65.6403 48.2266 65.6826L48.207 67.04ZM48.4951 68.3096C48.4951 67.7855 48.596 67.3184 48.7979 66.9082C48.9997 66.498 49.2894 66.1807 49.667 65.9561C50.0479 65.7314 50.4889 65.6191 50.9902 65.6191C51.7031 65.6191 52.2842 65.8372 52.7334 66.2734C53.1859 66.7096 53.4382 67.3021 53.4902 68.0508L53.5 68.4121C53.5 69.2227 53.2738 69.8737 52.8213 70.3652C52.3688 70.8535 51.7617 71.0977 51 71.0977C50.2383 71.0977 49.6296 70.8535 49.1738 70.3652C48.7214 69.877 48.4951 69.2129 48.4951 68.373V68.3096ZM49.9062 68.4121C49.9062 68.9134 50.0007 69.2975 50.1895 69.5645C50.3783 69.8281 50.6484 69.96 51 69.96C51.3418 69.96 51.6087 69.8298 51.8008 69.5693C51.9928 69.3057 52.0889 68.8857 52.0889 68.3096C52.0889 67.818 51.9928 67.4372 51.8008 67.167C51.6087 66.8968 51.3385 66.7617 50.9902 66.7617C50.6452 66.7617 50.3783 66.8968 50.1895 67.167C50.0007 67.4339 49.9062 67.849 49.9062 68.4121ZM57.3379 67.04C57.1458 67.014 56.9766 67.001 56.8301 67.001C56.2962 67.001 55.9463 67.1816 55.7803 67.543V71H54.3691V65.7168H55.7021L55.7412 66.3467C56.0244 65.8617 56.4167 65.6191 56.918 65.6191C57.0742 65.6191 57.2207 65.6403 57.3574 65.6826L57.3379 67.04ZM60.3555 71.0977C59.5807 71.0977 58.9492 70.86 58.4609 70.3848C57.9759 69.9095 57.7334 69.2764 57.7334 68.4854V68.3486C57.7334 67.818 57.8359 67.3444 58.041 66.9277C58.2461 66.5078 58.5358 66.1855 58.9102 65.9609C59.2878 65.7331 59.7174 65.6191 60.1992 65.6191C60.9219 65.6191 61.4899 65.847 61.9033 66.3027C62.32 66.7585 62.5283 67.4046 62.5283 68.2412V68.8174H59.1641C59.2096 69.1624 59.3464 69.4391 59.5742 69.6475C59.8053 69.8558 60.0967 69.96 60.4482 69.96C60.9919 69.96 61.4167 69.763 61.7227 69.3691L62.416 70.1455C62.2044 70.445 61.918 70.6794 61.5566 70.8486C61.1953 71.0146 60.7949 71.0977 60.3555 71.0977ZM60.1943 66.7617C59.9144 66.7617 59.6865 66.8561 59.5107 67.0449C59.3382 67.2337 59.2275 67.5039 59.1787 67.8555H61.1416V67.7432C61.1351 67.4307 61.0505 67.1898 60.8877 67.0205C60.7249 66.848 60.4938 66.7617 60.1943 66.7617ZM66.1807 67.0205H67.9434V68.2949H66.1807V70.2871H64.8379V68.2949H63.0703V67.0205H64.8379V65.1113H66.1807V67.0205Z" fill="#4A4A4A"/>
<path d="M39.7773 76.6016V80.9521C39.7744 81.5557 39.584 82.0493 39.2061 82.4331C38.8311 82.8169 38.3213 83.0322 37.6768 83.0791L37.4526 83.0879C36.7524 83.0879 36.1943 82.8989 35.7783 82.521C35.3623 82.1431 35.1514 81.623 35.1455 80.9609V76.6016H35.9805V80.9346C35.9805 81.3975 36.1079 81.7578 36.3628 82.0156C36.6177 82.2705 36.981 82.3979 37.4526 82.3979C37.9302 82.3979 38.2949 82.2705 38.5469 82.0156C38.8018 81.7607 38.9292 81.4019 38.9292 80.939V76.6016H39.7773ZM43.75 81.7388C43.75 81.519 43.6665 81.3491 43.4995 81.229C43.3354 81.106 43.0469 81.0005 42.6338 80.9126C42.2236 80.8247 41.897 80.7192 41.6538 80.5962C41.4136 80.4731 41.2349 80.3267 41.1177 80.1567C41.0034 79.9868 40.9463 79.7847 40.9463 79.5503C40.9463 79.1606 41.1104 78.8311 41.4385 78.5615C41.7695 78.292 42.1914 78.1572 42.7041 78.1572C43.2432 78.1572 43.6797 78.2964 44.0137 78.5747C44.3506 78.853 44.519 79.209 44.519 79.6426H43.7017C43.7017 79.4199 43.6064 79.228 43.416 79.0669C43.2285 78.9058 42.9912 78.8252 42.7041 78.8252C42.4082 78.8252 42.1768 78.8896 42.0098 79.0186C41.8428 79.1475 41.7593 79.3159 41.7593 79.5239C41.7593 79.7202 41.8369 79.8682 41.9922 79.9678C42.1475 80.0674 42.4272 80.1626 42.8315 80.2534C43.2388 80.3442 43.5684 80.4526 43.8203 80.5786C44.0723 80.7046 44.2583 80.8569 44.3784 81.0356C44.5015 81.2114 44.563 81.4268 44.563 81.6816C44.563 82.1064 44.3931 82.4478 44.0532 82.7056C43.7134 82.9604 43.2725 83.0879 42.7305 83.0879C42.3496 83.0879 42.0127 83.0205 41.7197 82.8857C41.4268 82.751 41.1968 82.5635 41.0298 82.3232C40.8657 82.0801 40.7837 81.8179 40.7837 81.5366H41.5967C41.6113 81.8091 41.7197 82.0259 41.9219 82.187C42.127 82.3452 42.3965 82.4243 42.7305 82.4243C43.0381 82.4243 43.2842 82.3628 43.4688 82.2397C43.6562 82.1138 43.75 81.9468 43.75 81.7388ZM47.5952 83.0879C46.9507 83.0879 46.4263 82.877 46.022 82.4551C45.6177 82.0303 45.4155 81.4634 45.4155 80.7544V80.605C45.4155 80.1333 45.5049 79.7129 45.6836 79.3438C45.8652 78.9717 46.1172 78.6816 46.4395 78.4736C46.7646 78.2627 47.1162 78.1572 47.4941 78.1572C48.1123 78.1572 48.5928 78.3608 48.9355 78.7681C49.2783 79.1753 49.4497 79.7583 49.4497 80.5171V80.8555H46.2285C46.2402 81.3242 46.3765 81.7036 46.6372 81.9937C46.9009 82.2808 47.2349 82.4243 47.6392 82.4243C47.9263 82.4243 48.1694 82.3657 48.3687 82.2485C48.5679 82.1313 48.7422 81.9761 48.8916 81.7827L49.3882 82.1694C48.9897 82.7817 48.3921 83.0879 47.5952 83.0879ZM47.4941 78.8252C47.166 78.8252 46.8906 78.9453 46.668 79.1855C46.4453 79.4229 46.3076 79.7568 46.2549 80.1875H48.6367V80.126C48.6133 79.7129 48.502 79.3936 48.3027 79.168C48.1035 78.9395 47.834 78.8252 47.4941 78.8252ZM52.6929 78.9746C52.5698 78.9541 52.4365 78.9438 52.293 78.9438C51.7598 78.9438 51.3979 79.1709 51.2075 79.625V83H50.3945V78.2451H51.1855L51.1987 78.7944C51.4653 78.3696 51.8433 78.1572 52.3325 78.1572C52.4907 78.1572 52.6108 78.1777 52.6929 78.2188V78.9746ZM56.2129 81.7388C56.2129 81.519 56.1294 81.3491 55.9624 81.229C55.7983 81.106 55.5098 81.0005 55.0967 80.9126C54.6865 80.8247 54.3599 80.7192 54.1167 80.5962C53.8765 80.4731 53.6978 80.3267 53.5806 80.1567C53.4663 79.9868 53.4092 79.7847 53.4092 79.5503C53.4092 79.1606 53.5732 78.8311 53.9014 78.5615C54.2324 78.292 54.6543 78.1572 55.167 78.1572C55.7061 78.1572 56.1426 78.2964 56.4766 78.5747C56.8135 78.853 56.9819 79.209 56.9819 79.6426H56.1646C56.1646 79.4199 56.0693 79.228 55.8789 79.0669C55.6914 78.9058 55.4541 78.8252 55.167 78.8252C54.8711 78.8252 54.6396 78.8896 54.4727 79.0186C54.3057 79.1475 54.2222 79.3159 54.2222 79.5239C54.2222 79.7202 54.2998 79.8682 54.4551 79.9678C54.6104 80.0674 54.8901 80.1626 55.2944 80.2534C55.7017 80.3442 56.0312 80.4526 56.2832 80.5786C56.5352 80.7046 56.7212 80.8569 56.8413 81.0356C56.9644 81.2114 57.0259 81.4268 57.0259 81.6816C57.0259 82.1064 56.856 82.4478 56.5161 82.7056C56.1763 82.9604 55.7354 83.0879 55.1934 83.0879C54.8125 83.0879 54.4756 83.0205 54.1826 82.8857C53.8896 82.751 53.6597 82.5635 53.4927 82.3232C53.3286 82.0801 53.2466 81.8179 53.2466 81.5366H54.0596C54.0742 81.8091 54.1826 82.0259 54.3848 82.187C54.5898 82.3452 54.8594 82.4243 55.1934 82.4243C55.501 82.4243 55.7471 82.3628 55.9316 82.2397C56.1191 82.1138 56.2129 81.9468 56.2129 81.7388Z" fill="#828282"/>
<circle cx="126" cy="40" r="13" fill="black"/>
<path fill-rule="evenodd" clip-rule="evenodd" d="M117.375 26.7925L125.462 23.1993C126.052 22.9336 126.745 22.9336 127.334 23.1993L135.422 26.7925C136.254 27.1622 136.797 27.9941 136.797 28.9068V34.337C136.797 40.7493 132.36 46.7456 126.398 48.2014C120.437 46.7456 116 40.7493 116 34.337V28.9068C116 27.9941 116.543 27.1622 117.375 26.7925ZM120.275 37.4572L123.267 40.4496C123.718 40.9002 124.457 40.9002 124.896 40.4496L132.51 32.8357C132.961 32.3851 132.961 31.6572 132.51 31.2066C132.059 30.7561 131.332 30.7561 130.881 31.2066L124.087 38.0002L121.904 35.8281C121.453 35.3775 120.725 35.3775 120.275 35.8281C120.058 36.044 119.937 36.337 119.937 36.6426C119.937 36.9483 120.058 37.2413 120.275 37.4572Z" fill="#FF1E46"/>
<path d="M99.4473 71H98.0361V65.5605L96.3516 66.083V64.9355L99.2959 63.8809H99.4473V71ZM106.547 68.0605C106.547 69.0436 106.343 69.7956 105.937 70.3164C105.53 70.8372 104.934 71.0977 104.149 71.0977C103.375 71.0977 102.782 70.8421 102.372 70.3311C101.962 69.82 101.752 69.0876 101.742 68.1338V66.8252C101.742 65.8324 101.947 65.0788 102.357 64.5645C102.771 64.0501 103.365 63.793 104.14 63.793C104.914 63.793 105.507 64.0485 105.917 64.5596C106.327 65.0674 106.537 65.7982 106.547 66.752V68.0605ZM105.136 66.625C105.136 66.0358 105.054 65.6077 104.892 65.3408C104.732 65.0706 104.481 64.9355 104.14 64.9355C103.808 64.9355 103.562 65.0641 103.402 65.3213C103.246 65.5752 103.163 65.974 103.153 66.5176V68.2461C103.153 68.8255 103.231 69.2568 103.388 69.54C103.547 69.82 103.801 69.96 104.149 69.96C104.494 69.96 104.743 69.8249 104.896 69.5547C105.049 69.2845 105.129 68.8711 105.136 68.3145V66.625ZM112.289 68.0605C112.289 69.0436 112.086 69.7956 111.679 70.3164C111.272 70.8372 110.676 71.0977 109.892 71.0977C109.117 71.0977 108.524 70.8421 108.114 70.3311C107.704 69.82 107.494 69.0876 107.484 68.1338V66.8252C107.484 65.8324 107.689 65.0788 108.1 64.5645C108.513 64.0501 109.107 63.793 109.882 63.793C110.657 63.793 111.249 64.0485 111.659 64.5596C112.069 65.0674 112.279 65.7982 112.289 66.752V68.0605ZM110.878 66.625C110.878 66.0358 110.797 65.6077 110.634 65.3408C110.474 65.0706 110.224 64.9355 109.882 64.9355C109.55 64.9355 109.304 65.0641 109.145 65.3213C108.988 65.5752 108.905 65.974 108.896 66.5176V68.2461C108.896 68.8255 108.974 69.2568 109.13 69.54C109.289 69.82 109.543 69.96 109.892 69.96C110.237 69.96 110.486 69.8249 110.639 69.5547C110.792 69.2845 110.871 68.8711 110.878 68.3145V66.625ZM113.227 65.2578C113.227 64.8216 113.368 64.4684 113.651 64.1982C113.935 63.9248 114.306 63.7881 114.765 63.7881C115.23 63.7881 115.604 63.9232 115.888 64.1934C116.171 64.4603 116.312 64.8232 116.312 65.2822V65.6338C116.312 66.0732 116.171 66.4264 115.888 66.6934C115.604 66.9603 115.233 67.0938 114.774 67.0938C114.312 67.0938 113.938 66.9603 113.651 66.6934C113.368 66.4232 113.227 66.0602 113.227 65.6045V65.2578ZM114.164 65.6338C114.164 65.8291 114.219 65.987 114.33 66.1074C114.444 66.2246 114.592 66.2832 114.774 66.2832C114.957 66.2832 115.102 66.223 115.209 66.1025C115.316 65.9821 115.37 65.821 115.37 65.6191V65.2578C115.37 65.0625 115.316 64.9046 115.209 64.7842C115.102 64.6637 114.953 64.6035 114.765 64.6035C114.586 64.6035 114.441 64.6637 114.33 64.7842C114.219 64.9014 114.164 65.0658 114.164 65.2773V65.6338ZM116.625 69.2568C116.625 68.8174 116.768 68.4642 117.055 68.1973C117.341 67.9271 117.712 67.792 118.168 67.792C118.63 67.792 119.003 67.9255 119.286 68.1924C119.573 68.4561 119.716 68.8206 119.716 69.2861V69.6377C119.716 70.0739 119.576 70.4271 119.296 70.6973C119.016 70.9642 118.643 71.0977 118.178 71.0977C117.709 71.0977 117.333 70.9626 117.05 70.6924C116.767 70.4222 116.625 70.0641 116.625 69.6182V69.2568ZM117.562 69.6377C117.562 69.8167 117.621 69.9697 117.738 70.0967C117.855 70.2236 118.002 70.2871 118.178 70.2871C118.575 70.2871 118.773 70.0674 118.773 69.6279V69.2568C118.773 69.0615 118.718 68.9053 118.607 68.7881C118.497 68.6676 118.35 68.6074 118.168 68.6074C117.986 68.6074 117.839 68.6676 117.729 68.7881C117.618 68.9053 117.562 69.0664 117.562 69.2715V69.6377ZM115.053 70.4678L114.364 70.0967L117.836 64.54L118.524 64.9111L115.053 70.4678ZM126.957 69.1348C126.957 68.8581 126.859 68.6465 126.664 68.5C126.469 68.3503 126.117 68.194 125.609 68.0312C125.102 67.8652 124.7 67.7025 124.403 67.543C123.596 67.1068 123.192 66.5192 123.192 65.7803C123.192 65.3962 123.3 65.0544 123.515 64.7549C123.733 64.4521 124.044 64.2161 124.447 64.0469C124.854 63.8776 125.31 63.793 125.814 63.793C126.322 63.793 126.775 63.8857 127.172 64.0713C127.569 64.2536 127.877 64.5124 128.095 64.8477C128.316 65.1829 128.427 65.5638 128.427 65.9902H126.962C126.962 65.6647 126.859 65.4124 126.654 65.2334C126.449 65.0511 126.161 64.96 125.79 64.96C125.432 64.96 125.154 65.0365 124.955 65.1895C124.757 65.3392 124.657 65.5378 124.657 65.7852C124.657 66.0163 124.773 66.21 125.004 66.3662C125.238 66.5225 125.582 66.6689 126.034 66.8057C126.868 67.0563 127.475 67.3672 127.855 67.7383C128.236 68.1094 128.427 68.5716 128.427 69.125C128.427 69.7402 128.194 70.2236 127.729 70.5752C127.263 70.9235 126.636 71.0977 125.849 71.0977C125.302 71.0977 124.804 70.9984 124.354 70.7998C123.905 70.598 123.562 70.3229 123.324 69.9746C123.09 69.6263 122.973 69.2227 122.973 68.7637H124.442C124.442 69.5482 124.911 69.9404 125.849 69.9404C126.197 69.9404 126.469 69.8704 126.664 69.7305C126.859 69.5872 126.957 69.3887 126.957 69.1348ZM131.762 71.0977C130.987 71.0977 130.355 70.86 129.867 70.3848C129.382 69.9095 129.14 69.2764 129.14 68.4854V68.3486C129.14 67.818 129.242 67.3444 129.447 66.9277C129.652 66.5078 129.942 66.1855 130.316 65.9609C130.694 65.7331 131.124 65.6191 131.605 65.6191C132.328 65.6191 132.896 65.847 133.31 66.3027C133.726 66.7585 133.935 67.4046 133.935 68.2412V68.8174H130.57C130.616 69.1624 130.753 69.4391 130.98 69.6475C131.212 69.8558 131.503 69.96 131.854 69.96C132.398 69.96 132.823 69.763 133.129 69.3691L133.822 70.1455C133.611 70.445 133.324 70.6794 132.963 70.8486C132.602 71.0146 132.201 71.0977 131.762 71.0977ZM131.601 66.7617C131.321 66.7617 131.093 66.8561 130.917 67.0449C130.744 67.2337 130.634 67.5039 130.585 67.8555H132.548V67.7432C132.541 67.4307 132.457 67.1898 132.294 67.0205C132.131 66.848 131.9 66.7617 131.601 66.7617ZM136.938 69.96C137.198 69.96 137.41 69.8883 137.572 69.7451C137.735 69.6019 137.82 69.4115 137.826 69.1738H139.149C139.146 69.5319 139.049 69.8607 138.856 70.1602C138.664 70.4564 138.401 70.6875 138.065 70.8535C137.733 71.0163 137.366 71.0977 136.962 71.0977C136.207 71.0977 135.611 70.8584 135.175 70.3799C134.739 69.8981 134.521 69.234 134.521 68.3877V68.2949C134.521 67.4811 134.737 66.8317 135.17 66.3467C135.603 65.8617 136.197 65.6191 136.952 65.6191C137.613 65.6191 138.142 65.8079 138.539 66.1855C138.939 66.5599 139.143 67.0596 139.149 67.6846H137.826C137.82 67.4111 137.735 67.1898 137.572 67.0205C137.41 66.848 137.195 66.7617 136.928 66.7617C136.599 66.7617 136.35 66.8822 136.181 67.123C136.015 67.3607 135.932 67.748 135.932 68.2852V68.4316C135.932 68.9753 136.015 69.3659 136.181 69.6035C136.347 69.8411 136.599 69.96 136.938 69.96ZM143.119 70.4629C142.771 70.8861 142.289 71.0977 141.674 71.0977C141.107 71.0977 140.674 70.9349 140.375 70.6094C140.079 70.2839 139.927 69.807 139.921 69.1787V65.7168H141.332V69.1299C141.332 69.68 141.583 69.9551 142.084 69.9551C142.562 69.9551 142.891 69.7891 143.07 69.457V65.7168H144.486V71H143.158L143.119 70.4629ZM148.52 67.04C148.327 67.014 148.158 67.001 148.012 67.001C147.478 67.001 147.128 67.1816 146.962 67.543V71H145.551V65.7168H146.884L146.923 66.3467C147.206 65.8617 147.598 65.6191 148.1 65.6191C148.256 65.6191 148.402 65.6403 148.539 65.6826L148.52 67.04ZM151.537 71.0977C150.762 71.0977 150.131 70.86 149.643 70.3848C149.158 69.9095 148.915 69.2764 148.915 68.4854V68.3486C148.915 67.818 149.018 67.3444 149.223 66.9277C149.428 66.5078 149.717 66.1855 150.092 65.9609C150.469 65.7331 150.899 65.6191 151.381 65.6191C152.104 65.6191 152.672 65.847 153.085 66.3027C153.502 66.7585 153.71 67.4046 153.71 68.2412V68.8174H150.346C150.391 69.1624 150.528 69.4391 150.756 69.6475C150.987 69.8558 151.278 69.96 151.63 69.96C152.174 69.96 152.598 69.763 152.904 69.3691L153.598 70.1455C153.386 70.445 153.1 70.6794 152.738 70.8486C152.377 71.0146 151.977 71.0977 151.537 71.0977ZM151.376 66.7617C151.096 66.7617 150.868 66.8561 150.692 67.0449C150.52 67.2337 150.409 67.5039 150.36 67.8555H152.323V67.7432C152.317 67.4307 152.232 67.1898 152.069 67.0205C151.907 66.848 151.675 66.7617 151.376 66.7617Z" fill="#4A4A4A"/>
<path d="M111.652 81.2817C111.652 80.9741 111.737 80.6914 111.907 80.4336C112.08 80.1758 112.408 79.8755 112.891 79.5327C112.607 79.187 112.417 78.9087 112.32 78.6978C112.223 78.4868 112.175 78.2773 112.175 78.0693C112.175 77.583 112.318 77.2021 112.605 76.9268C112.893 76.6514 113.282 76.5137 113.774 76.5137C114.214 76.5137 114.577 76.6426 114.864 76.9004C115.151 77.1553 115.295 77.4775 115.295 77.8672C115.295 78.125 115.229 78.3638 115.097 78.5835C114.968 78.8003 114.741 79.0288 114.416 79.269L113.946 79.6162L115.37 81.3169C115.569 80.936 115.668 80.5127 115.668 80.0469H116.402C116.402 80.7939 116.222 81.4136 115.862 81.9058L116.776 83H115.8L115.374 82.4946C115.157 82.688 114.902 82.8359 114.609 82.9385C114.319 83.0381 114.023 83.0879 113.722 83.0879C113.098 83.0879 112.597 82.9224 112.219 82.5913C111.841 82.2603 111.652 81.8237 111.652 81.2817ZM113.722 82.4243C114.152 82.4243 114.546 82.2603 114.904 81.9321L113.344 80.0645L113.199 80.1699C112.709 80.5303 112.465 80.9009 112.465 81.2817C112.465 81.6274 112.576 81.9043 112.799 82.1123C113.024 82.3203 113.332 82.4243 113.722 82.4243ZM112.988 78.043C112.988 78.3242 113.161 78.6758 113.506 79.0977L114.025 78.7329C114.224 78.5923 114.36 78.459 114.434 78.333C114.507 78.2041 114.543 78.0488 114.543 77.8672C114.543 77.6709 114.47 77.5083 114.324 77.3794C114.177 77.2476 113.993 77.1816 113.77 77.1816C113.53 77.1816 113.339 77.2637 113.199 77.4277C113.058 77.5889 112.988 77.7939 112.988 78.043ZM120.63 82.3101H123.662V83H119.782V76.6016H120.63V82.3101ZM126.47 83.0879C125.826 83.0879 125.301 82.877 124.897 82.4551C124.493 82.0303 124.291 81.4634 124.291 80.7544V80.605C124.291 80.1333 124.38 79.7129 124.559 79.3438C124.74 78.9717 124.992 78.6816 125.314 78.4736C125.64 78.2627 125.991 78.1572 126.369 78.1572C126.987 78.1572 127.468 78.3608 127.811 78.7681C128.153 79.1753 128.325 79.7583 128.325 80.5171V80.8555H125.104C125.115 81.3242 125.251 81.7036 125.512 81.9937C125.776 82.2808 126.11 82.4243 126.514 82.4243C126.801 82.4243 127.044 82.3657 127.244 82.2485C127.443 82.1313 127.617 81.9761 127.767 81.7827L128.263 82.1694C127.865 82.7817 127.267 83.0879 126.47 83.0879ZM126.369 78.8252C126.041 78.8252 125.766 78.9453 125.543 79.1855C125.32 79.4229 125.183 79.7568 125.13 80.1875H127.512V80.126C127.488 79.7129 127.377 79.3936 127.178 79.168C126.979 78.9395 126.709 78.8252 126.369 78.8252ZM129.076 80.583C129.076 79.8418 129.248 79.2529 129.59 78.8164C129.933 78.377 130.387 78.1572 130.953 78.1572C131.533 78.1572 131.985 78.3623 132.311 78.7725L132.35 78.2451H133.093V82.8857C133.093 83.501 132.91 83.9858 132.543 84.3403C132.18 84.6948 131.691 84.8721 131.076 84.8721C130.733 84.8721 130.397 84.7988 130.069 84.6523C129.741 84.5059 129.491 84.3052 129.318 84.0503L129.74 83.5625C130.088 83.9932 130.515 84.2085 131.019 84.2085C131.414 84.2085 131.722 84.0972 131.941 83.8745C132.164 83.6519 132.275 83.3384 132.275 82.9341V82.5254C131.95 82.9004 131.506 83.0879 130.944 83.0879C130.387 83.0879 129.936 82.8638 129.59 82.4155C129.248 81.9673 129.076 81.3564 129.076 80.583ZM129.894 80.6753C129.894 81.2114 130.003 81.6333 130.223 81.9409C130.443 82.2456 130.75 82.3979 131.146 82.3979C131.659 82.3979 132.035 82.165 132.275 81.6992V79.5283C132.026 79.0742 131.653 78.8472 131.155 78.8472C130.759 78.8472 130.45 79.001 130.228 79.3086C130.005 79.6162 129.894 80.0718 129.894 80.6753ZM137.259 83C137.212 82.9062 137.174 82.7393 137.145 82.499C136.767 82.8916 136.315 83.0879 135.791 83.0879C135.322 83.0879 134.937 82.9561 134.635 82.6924C134.336 82.4258 134.187 82.0889 134.187 81.6816C134.187 81.1865 134.375 80.8027 134.75 80.5303C135.127 80.2549 135.658 80.1172 136.34 80.1172H137.131V79.7437C137.131 79.4595 137.046 79.2339 136.876 79.0669C136.707 78.897 136.456 78.812 136.125 78.812C135.835 78.812 135.592 78.8853 135.396 79.0317C135.199 79.1782 135.101 79.3555 135.101 79.5635H134.284C134.284 79.3262 134.367 79.0977 134.534 78.8779C134.704 78.6553 134.933 78.4795 135.22 78.3506C135.51 78.2217 135.828 78.1572 136.173 78.1572C136.721 78.1572 137.15 78.2949 137.461 78.5703C137.771 78.8428 137.933 79.2192 137.944 79.6997V81.8882C137.944 82.3247 138 82.6719 138.111 82.9297V83H137.259ZM135.91 82.3804C136.165 82.3804 136.406 82.3145 136.635 82.1826C136.863 82.0508 137.029 81.8794 137.131 81.6685V80.6929H136.494C135.498 80.6929 135 80.9844 135 81.5674C135 81.8223 135.085 82.0215 135.255 82.165C135.425 82.3086 135.643 82.3804 135.91 82.3804ZM140.102 83H139.289V76.25H140.102V83Z" fill="#828282"/>
<circle cx="209" cy="36" r="13" fill="#FF1E46"/>
<path fill-rule="evenodd" clip-rule="evenodd" d="M206.4 22.0001C205.627 22.0001 205 22.6537 205 23.4599V32.2373C205 33.0436 205.627 33.6971 206.4 33.6971H209.201L211.014 35.5757C211.56 36.1414 212.442 36.1414 212.988 35.5757L214.802 33.6971L217.581 33.7058C218.355 33.7082 218.984 33.0555 218.985 32.2485L219 23.4624C219.001 22.6551 218.374 22 217.6 22L206.4 22.0001ZM207.8 25.5C207.8 25.1134 208.114 24.8 208.501 24.8H215.502C215.889 24.8 216.202 25.1134 216.202 25.5C216.202 25.8866 215.889 26.2 215.502 26.2H208.501C208.114 26.2 207.8 25.8866 207.8 25.5ZM208.501 27.6C208.114 27.6 207.8 27.9134 207.8 28.3C207.8 28.6866 208.114 29 208.501 29H211.301C211.688 29 212.001 28.6866 212.001 28.3C212.001 27.9134 211.688 27.6 211.301 27.6H208.501Z" fill="black"/>
<path d="M210.965 40.5562C211.016 40.5805 211.048 40.5954 211.055 40.5986C211.416 40.7669 211.701 40.8998 211.867 41.164C212.108 41.5523 212.013 42.6225 211.649 43.6019C211.188 44.8454 209.161 45.8647 208.238 45.9441L208.103 45.9566C207.89 45.977 207.648 46 207.346 46C206.627 46 205.362 45.8804 202.692 44.8453C199.918 43.7701 197.181 41.4649 194.986 38.3544C194.981 38.3461 194.975 38.3382 194.97 38.3306C194.941 38.2894 194.92 38.2602 194.908 38.2445C194.335 37.5115 193 35.5843 193 33.5431C193 31.2751 194.119 29.9855 194.78 29.5809C195.404 29.1994 196.814 29.0193 197.073 29.0087C197.227 29.0024 197.243 29.0007 197.259 29.0002C197.266 29 197.272 29 197.286 29C197.833 29 198.226 29.3219 198.524 30.0131C198.554 30.0826 198.645 30.2957 198.767 30.5805C199.148 31.4695 199.828 33.0571 199.877 33.1529C199.956 33.3042 200.202 33.7724 199.914 34.3274L199.853 34.4479C199.735 34.6794 199.633 34.8804 199.405 35.1379C199.331 35.2201 199.257 35.3073 199.182 35.3944C199.025 35.5782 198.862 35.7685 198.712 35.9126C198.66 35.9625 198.561 36.0593 198.55 36.0978C198.551 36.1036 198.557 36.1377 198.596 36.2034C198.904 36.709 201.149 39.7073 204.108 40.9542C204.237 41.0086 204.664 41.1791 204.688 41.1791C204.716 41.1791 204.762 41.1345 204.795 41.0973C205.053 40.8147 205.887 39.8689 206.162 39.4716C206.406 39.1179 206.719 38.9378 207.091 38.9378C207.319 38.9378 207.533 39.0059 207.733 39.0756C208.177 39.2304 210.478 40.3243 210.965 40.5562Z" fill="black"/>
<path d="M200.199 71H195.326V70.0332L197.626 67.582C197.942 67.237 198.174 66.9359 198.324 66.6787C198.477 66.4215 198.554 66.1774 198.554 65.9463C198.554 65.6305 198.474 65.3831 198.314 65.2041C198.155 65.0218 197.927 64.9307 197.631 64.9307C197.312 64.9307 197.06 65.0413 196.874 65.2627C196.692 65.4808 196.601 65.7689 196.601 66.127H195.185C195.185 65.694 195.287 65.2985 195.492 64.9404C195.701 64.5824 195.993 64.3024 196.371 64.1006C196.749 63.8955 197.177 63.793 197.655 63.793C198.388 63.793 198.956 63.9688 199.359 64.3203C199.766 64.6719 199.97 65.1683 199.97 65.8096C199.97 66.1611 199.879 66.5192 199.696 66.8838C199.514 67.2484 199.201 67.6732 198.759 68.1582L197.143 69.8623H200.199V71ZM205.243 68.3242H206.049V69.4619H205.243V71H203.832V69.4619H200.917L200.854 68.5732L203.817 63.8906H205.243V68.3242ZM202.26 68.3242H203.832V65.8145L203.739 65.9756L202.26 68.3242ZM208.881 67.2939L209.77 65.7168H211.278L209.774 68.3047L211.342 71H209.828L208.886 69.3398L207.948 71H206.43L207.997 68.3047L206.498 65.7168H208.012L208.881 67.2939ZM216.732 64.6816L213.983 71H212.494L215.248 65.0332H211.713V63.8906H216.732V64.6816Z" fill="#4A4A4A"/>
<path d="M191.863 80.9697C191.784 81.6465 191.533 82.1694 191.111 82.5386C190.692 82.9048 190.134 83.0879 189.437 83.0879C188.681 83.0879 188.075 82.8169 187.618 82.2749C187.164 81.7329 186.937 81.0078 186.937 80.0996V79.4844C186.937 78.8896 187.042 78.3667 187.253 77.9155C187.467 77.4644 187.769 77.1187 188.158 76.8784C188.548 76.6353 188.999 76.5137 189.512 76.5137C190.191 76.5137 190.736 76.7041 191.146 77.085C191.557 77.4629 191.795 77.9873 191.863 78.6582H191.015C190.941 78.1484 190.782 77.7793 190.536 77.5508C190.292 77.3223 189.951 77.208 189.512 77.208C188.973 77.208 188.549 77.4072 188.242 77.8057C187.937 78.2041 187.785 78.771 187.785 79.5063V80.126C187.785 80.8203 187.93 81.3726 188.22 81.7827C188.51 82.1929 188.916 82.3979 189.437 82.3979C189.906 82.3979 190.265 82.2925 190.514 82.0815C190.766 81.8677 190.933 81.4971 191.015 80.9697H191.863ZM195.827 82.5298C195.51 82.9019 195.046 83.0879 194.434 83.0879C193.927 83.0879 193.54 82.9414 193.273 82.6484C193.01 82.3525 192.876 81.916 192.874 81.3389V78.2451H193.687V81.3169C193.687 82.0376 193.979 82.3979 194.565 82.3979C195.187 82.3979 195.6 82.1665 195.805 81.7036V78.2451H196.618V83H195.844L195.827 82.5298ZM200.625 81.7388C200.625 81.519 200.542 81.3491 200.375 81.229C200.211 81.106 199.922 81.0005 199.509 80.9126C199.099 80.8247 198.772 80.7192 198.529 80.5962C198.289 80.4731 198.11 80.3267 197.993 80.1567C197.879 79.9868 197.822 79.7847 197.822 79.5503C197.822 79.1606 197.986 78.8311 198.314 78.5615C198.645 78.292 199.067 78.1572 199.58 78.1572C200.119 78.1572 200.555 78.2964 200.889 78.5747C201.226 78.853 201.395 79.209 201.395 79.6426H200.577C200.577 79.4199 200.482 79.228 200.292 79.0669C200.104 78.9058 199.867 78.8252 199.58 78.8252C199.284 78.8252 199.052 78.8896 198.885 79.0186C198.718 79.1475 198.635 79.3159 198.635 79.5239C198.635 79.7202 198.712 79.8682 198.868 79.9678C199.023 80.0674 199.303 80.1626 199.707 80.2534C200.114 80.3442 200.444 80.4526 200.696 80.5786C200.948 80.7046 201.134 80.8569 201.254 81.0356C201.377 81.2114 201.438 81.4268 201.438 81.6816C201.438 82.1064 201.269 82.4478 200.929 82.7056C200.589 82.9604 200.148 83.0879 199.606 83.0879C199.225 83.0879 198.888 83.0205 198.595 82.8857C198.302 82.751 198.072 82.5635 197.905 82.3232C197.741 82.0801 197.659 81.8179 197.659 81.5366H198.472C198.487 81.8091 198.595 82.0259 198.797 82.187C199.002 82.3452 199.272 82.4243 199.606 82.4243C199.914 82.4243 200.16 82.3628 200.344 82.2397C200.532 82.1138 200.625 81.9468 200.625 81.7388ZM203.601 77.0938V78.2451H204.488V78.8735H203.601V81.8223C203.601 82.0127 203.64 82.1562 203.719 82.2529C203.798 82.3467 203.933 82.3936 204.124 82.3936C204.217 82.3936 204.346 82.376 204.51 82.3408V83C204.296 83.0586 204.088 83.0879 203.886 83.0879C203.523 83.0879 203.249 82.978 203.064 82.7583C202.88 82.5386 202.788 82.2266 202.788 81.8223V78.8735H201.922V78.2451H202.788V77.0938H203.601ZM205.139 80.5786C205.139 80.1128 205.229 79.6938 205.411 79.3218C205.596 78.9497 205.851 78.6626 206.176 78.4604C206.504 78.2583 206.877 78.1572 207.296 78.1572C207.944 78.1572 208.467 78.3813 208.865 78.8296C209.267 79.2778 209.467 79.874 209.467 80.6182V80.6753C209.467 81.1382 209.378 81.5542 209.199 81.9233C209.023 82.2896 208.77 82.5752 208.439 82.7803C208.111 82.9854 207.733 83.0879 207.305 83.0879C206.661 83.0879 206.138 82.8638 205.736 82.4155C205.338 81.9673 205.139 81.374 205.139 80.6357V80.5786ZM205.956 80.6753C205.956 81.2026 206.078 81.626 206.321 81.9453C206.567 82.2646 206.895 82.4243 207.305 82.4243C207.718 82.4243 208.046 82.2632 208.29 81.9409C208.533 81.6157 208.654 81.1616 208.654 80.5786C208.654 80.0571 208.53 79.6353 208.281 79.313C208.035 78.9878 207.707 78.8252 207.296 78.8252C206.895 78.8252 206.571 78.9849 206.325 79.3042C206.079 79.6235 205.956 80.0806 205.956 80.6753ZM211.251 78.2451L211.273 78.7725C211.622 78.3623 212.092 78.1572 212.684 78.1572C213.349 78.1572 213.802 78.4121 214.042 78.9219C214.2 78.6934 214.405 78.5088 214.657 78.3682C214.912 78.2275 215.212 78.1572 215.558 78.1572C216.601 78.1572 217.131 78.7095 217.149 79.814V83H216.336V79.8623C216.336 79.5225 216.258 79.269 216.103 79.1021C215.948 78.9321 215.687 78.8472 215.321 78.8472C215.019 78.8472 214.769 78.938 214.569 79.1196C214.37 79.2983 214.254 79.54 214.222 79.8447V83H213.405V79.8843C213.405 79.1929 213.066 78.8472 212.39 78.8472C211.856 78.8472 211.492 79.0742 211.295 79.5283V83H210.482V78.2451H211.251ZM220.353 83.0879C219.708 83.0879 219.184 82.877 218.779 82.4551C218.375 82.0303 218.173 81.4634 218.173 80.7544V80.605C218.173 80.1333 218.262 79.7129 218.441 79.3438C218.623 78.9717 218.875 78.6816 219.197 78.4736C219.522 78.2627 219.874 78.1572 220.251 78.1572C220.87 78.1572 221.35 78.3608 221.693 78.7681C222.036 79.1753 222.207 79.7583 222.207 80.5171V80.8555H218.986C218.998 81.3242 219.134 81.7036 219.395 81.9937C219.658 82.2808 219.992 82.4243 220.396 82.4243C220.684 82.4243 220.927 82.3657 221.126 82.2485C221.325 82.1313 221.5 81.9761 221.649 81.7827L222.146 82.1694C221.747 82.7817 221.149 83.0879 220.353 83.0879ZM220.251 78.8252C219.923 78.8252 219.648 78.9453 219.425 79.1855C219.203 79.4229 219.065 79.7568 219.012 80.1875H221.394V80.126C221.371 79.7129 221.259 79.3936 221.06 79.168C220.861 78.9395 220.591 78.8252 220.251 78.8252ZM225.45 78.9746C225.327 78.9541 225.194 78.9438 225.05 78.9438C224.517 78.9438 224.155 79.1709 223.965 79.625V83H223.152V78.2451H223.943L223.956 78.7944C224.223 78.3696 224.601 78.1572 225.09 78.1572C225.248 78.1572 225.368 78.1777 225.45 78.2188V78.9746ZM192.746 92.1479C192.022 91.9399 191.495 91.6851 191.164 91.3833C190.836 91.0786 190.672 90.7036 190.672 90.2583C190.672 89.7544 190.873 89.3384 191.274 89.0103C191.678 88.6792 192.203 88.5137 192.847 88.5137C193.287 88.5137 193.678 88.5986 194.021 88.7686C194.366 88.9385 194.633 89.1729 194.82 89.4717C195.011 89.7705 195.106 90.0972 195.106 90.4517H194.258C194.258 90.0649 194.135 89.7617 193.889 89.542C193.643 89.3193 193.295 89.208 192.847 89.208C192.431 89.208 192.106 89.3003 191.872 89.4849C191.64 89.6665 191.524 89.9199 191.524 90.2451C191.524 90.5059 191.634 90.7271 191.854 90.9087C192.077 91.0874 192.453 91.2515 192.983 91.4009C193.517 91.5503 193.933 91.7158 194.231 91.8975C194.533 92.0762 194.756 92.2856 194.899 92.5259C195.046 92.7661 195.119 93.0488 195.119 93.374C195.119 93.8926 194.917 94.3086 194.513 94.6221C194.108 94.9326 193.568 95.0879 192.891 95.0879C192.452 95.0879 192.042 95.0044 191.661 94.8374C191.28 94.6675 190.985 94.436 190.777 94.1431C190.572 93.8501 190.47 93.5176 190.47 93.1455H191.318C191.318 93.5322 191.46 93.8384 191.744 94.064C192.031 94.2866 192.414 94.3979 192.891 94.3979C193.336 94.3979 193.678 94.3071 193.915 94.1255C194.152 93.9438 194.271 93.6963 194.271 93.3828C194.271 93.0693 194.161 92.8276 193.941 92.6577C193.722 92.4849 193.323 92.3149 192.746 92.1479ZM199.013 94.5298C198.696 94.9019 198.232 95.0879 197.62 95.0879C197.113 95.0879 196.726 94.9414 196.459 94.6484C196.196 94.3525 196.062 93.916 196.06 93.3389V90.2451H196.873V93.3169C196.873 94.0376 197.166 94.3979 197.751 94.3979C198.373 94.3979 198.786 94.1665 198.991 93.7036V90.2451H199.804V95H199.03L199.013 94.5298ZM205.06 92.6753C205.06 93.3989 204.894 93.9819 204.563 94.4243C204.232 94.8667 203.784 95.0879 203.218 95.0879C202.641 95.0879 202.187 94.9048 201.856 94.5386V96.8281H201.043V90.2451H201.786L201.825 90.7725C202.156 90.3623 202.616 90.1572 203.205 90.1572C203.776 90.1572 204.228 90.3726 204.559 90.8032C204.893 91.2339 205.06 91.833 205.06 92.6006V92.6753ZM204.247 92.583C204.247 92.0469 204.132 91.6235 203.904 91.313C203.675 91.0024 203.362 90.8472 202.963 90.8472C202.471 90.8472 202.102 91.0654 201.856 91.502V93.7739C202.099 94.2075 202.471 94.4243 202.972 94.4243C203.362 94.4243 203.671 94.2705 203.899 93.9629C204.131 93.6523 204.247 93.1924 204.247 92.583ZM210.113 92.6753C210.113 93.3989 209.948 93.9819 209.617 94.4243C209.286 94.8667 208.837 95.0879 208.272 95.0879C207.695 95.0879 207.241 94.9048 206.91 94.5386V96.8281H206.097V90.2451H206.839L206.879 90.7725C207.21 90.3623 207.67 90.1572 208.259 90.1572C208.83 90.1572 209.281 90.3726 209.612 90.8032C209.946 91.2339 210.113 91.833 210.113 92.6006V92.6753ZM209.3 92.583C209.3 92.0469 209.186 91.6235 208.958 91.313C208.729 91.0024 208.416 90.8472 208.017 90.8472C207.525 90.8472 207.156 91.0654 206.91 91.502V93.7739C207.153 94.2075 207.525 94.4243 208.026 94.4243C208.416 94.4243 208.725 94.2705 208.953 93.9629C209.185 93.6523 209.3 93.1924 209.3 92.583ZM210.935 92.5786C210.935 92.1128 211.026 91.6938 211.208 91.3218C211.392 90.9497 211.647 90.6626 211.972 90.4604C212.3 90.2583 212.674 90.1572 213.093 90.1572C213.74 90.1572 214.263 90.3813 214.662 90.8296C215.063 91.2778 215.264 91.874 215.264 92.6182V92.6753C215.264 93.1382 215.174 93.5542 214.996 93.9233C214.82 94.2896 214.566 94.5752 214.235 94.7803C213.907 94.9854 213.529 95.0879 213.102 95.0879C212.457 95.0879 211.934 94.8638 211.533 94.4155C211.134 93.9673 210.935 93.374 210.935 92.6357V92.5786ZM211.752 92.6753C211.752 93.2026 211.874 93.626 212.117 93.9453C212.363 94.2646 212.691 94.4243 213.102 94.4243C213.515 94.4243 213.843 94.2632 214.086 93.9409C214.329 93.6157 214.451 93.1616 214.451 92.5786C214.451 92.0571 214.326 91.6353 214.077 91.313C213.831 90.9878 213.503 90.8252 213.093 90.8252C212.691 90.8252 212.368 90.9849 212.122 91.3042C211.875 91.6235 211.752 92.0806 211.752 92.6753ZM218.582 90.9746C218.458 90.9541 218.325 90.9438 218.182 90.9438C217.648 90.9438 217.287 91.1709 217.096 91.625V95H216.283V90.2451H217.074L217.087 90.7944C217.354 90.3696 217.732 90.1572 218.221 90.1572C218.379 90.1572 218.5 90.1777 218.582 90.2188V90.9746ZM220.656 89.0938V90.2451H221.543V90.8735H220.656V93.8223C220.656 94.0127 220.695 94.1562 220.774 94.2529C220.854 94.3467 220.988 94.3936 221.179 94.3936C221.272 94.3936 221.401 94.376 221.565 94.3408V95C221.352 95.0586 221.144 95.0879 220.941 95.0879C220.578 95.0879 220.304 94.978 220.12 94.7583C219.935 94.5386 219.843 94.2266 219.843 93.8223V90.8735H218.977V90.2451H219.843V89.0938H220.656Z" fill="#828282"/>
<path fill-rule="evenodd" clip-rule="evenodd" d="M270.212 37.1828C269.543 36.5133 269.38 35.5907 269.849 35.1221L285.122 19.8485C285.591 19.3799 286.513 19.5427 287.183 20.2122L301.729 34.7584C302.398 35.4279 302.561 36.3505 302.093 36.8191L286.819 52.0926C286.35 52.5612 285.428 52.3984 284.758 51.729L270.212 37.1828Z" fill="black"/>
<path fill-rule="evenodd" clip-rule="evenodd" d="M275.2 23.9706C274.537 23.9706 274 24.7381 274 25.6849V46.2563C274 47.2031 274.537 47.9706 275.2 47.9706H296.8C297.463 47.9706 298 47.2031 298 46.2563V25.6849C298 24.7381 297.463 23.9706 296.8 23.9706H275.2ZM289.866 31.3955H283.192V33.0339L285.119 33.0335C285.821 33.0899 286.415 33.5226 286.702 34.1295L283.192 34.1295V35.7679L286.702 35.7681C286.394 36.4194 285.731 36.87 284.963 36.87L283.192 36.8698L283.192 38.2126L283.191 38.4993L283.192 38.5005L283.192 38.5018H283.194L286.448 41.4079H289.475L286.04 38.4138C287.358 38.1146 288.398 37.0821 288.708 35.7677L289.866 35.7679V34.1295L288.708 34.1296C288.615 33.7349 288.456 33.3655 288.244 33.0338L289.866 33.0339V31.3955Z" fill="#FF1E46"/>
<path d="M270.116 68.6318C270.061 69.3968 269.778 69.999 269.267 70.4385C268.759 70.8779 268.088 71.0977 267.255 71.0977C266.343 71.0977 265.626 70.7917 265.102 70.1797C264.581 69.5645 264.32 68.7214 264.32 67.6504V67.2158C264.32 66.5322 264.441 65.93 264.682 65.4092C264.923 64.8883 265.266 64.4896 265.712 64.2129C266.161 63.9329 266.682 63.793 267.274 63.793C268.095 63.793 268.756 64.0127 269.257 64.4521C269.758 64.8916 270.048 65.5085 270.126 66.3027H268.661C268.625 65.8438 268.497 65.5117 268.275 65.3066C268.057 65.0983 267.724 64.9941 267.274 64.9941C266.786 64.9941 266.42 65.1699 266.176 65.5215C265.935 65.8698 265.811 66.4118 265.805 67.1475V67.6846C265.805 68.4528 265.92 69.0143 266.151 69.3691C266.386 69.724 266.754 69.9014 267.255 69.9014C267.707 69.9014 268.044 69.7988 268.266 69.5938C268.49 69.3854 268.619 69.0648 268.651 68.6318H270.116ZM274.047 71C273.982 70.873 273.935 70.7152 273.905 70.5264C273.563 70.9072 273.119 71.0977 272.572 71.0977C272.055 71.0977 271.625 70.9479 271.283 70.6484C270.945 70.349 270.775 69.9714 270.775 69.5156C270.775 68.9557 270.982 68.526 271.396 68.2266C271.812 67.9271 272.413 67.7757 273.197 67.7725H273.847V67.4697C273.847 67.2256 273.783 67.0303 273.656 66.8838C273.533 66.7373 273.336 66.6641 273.065 66.6641C272.828 66.6641 272.641 66.721 272.504 66.835C272.37 66.9489 272.304 67.1051 272.304 67.3037H270.893C270.893 66.9977 270.987 66.7145 271.176 66.4541C271.365 66.1937 271.632 65.9902 271.977 65.8438C272.322 65.694 272.709 65.6191 273.139 65.6191C273.79 65.6191 274.306 65.7835 274.687 66.1123C275.071 66.4378 275.263 66.8968 275.263 67.4893V69.7793C275.266 70.2806 275.336 70.6598 275.473 70.917V71H274.047ZM272.88 70.0186C273.088 70.0186 273.28 69.973 273.456 69.8818C273.632 69.7874 273.762 69.6621 273.847 69.5059V68.5977H273.319C272.613 68.5977 272.237 68.8418 272.191 69.3301L272.187 69.4131C272.187 69.5889 272.248 69.7337 272.372 69.8477C272.496 69.9616 272.665 70.0186 272.88 70.0186ZM279.208 69.54C279.208 69.3675 279.122 69.2324 278.949 69.1348C278.78 69.0339 278.507 68.9443 278.129 68.8662C276.872 68.6025 276.244 68.0687 276.244 67.2646C276.244 66.7959 276.438 66.4053 276.825 66.0928C277.216 65.777 277.725 65.6191 278.354 65.6191C279.024 65.6191 279.56 65.777 279.96 66.0928C280.364 66.4085 280.565 66.8187 280.565 67.3232H279.154C279.154 67.1214 279.089 66.9554 278.959 66.8252C278.829 66.6917 278.625 66.625 278.349 66.625C278.111 66.625 277.927 66.6787 277.797 66.7861C277.667 66.8936 277.602 67.0303 277.602 67.1963C277.602 67.3525 277.675 67.4795 277.821 67.5771C277.971 67.6715 278.222 67.7546 278.573 67.8262C278.925 67.8945 279.221 67.9727 279.462 68.0605C280.207 68.334 280.58 68.8076 280.58 69.4814C280.58 69.9632 280.373 70.3538 279.96 70.6533C279.547 70.9495 279.013 71.0977 278.358 71.0977C277.916 71.0977 277.522 71.0195 277.177 70.8633C276.835 70.7038 276.566 70.4873 276.371 70.2139C276.176 69.9372 276.078 69.6393 276.078 69.3203H277.416C277.429 69.571 277.522 69.763 277.694 69.8965C277.867 70.0299 278.098 70.0967 278.388 70.0967C278.658 70.0967 278.861 70.0462 278.998 69.9453C279.138 69.8411 279.208 69.7061 279.208 69.54ZM282.87 66.293C283.244 65.8438 283.715 65.6191 284.281 65.6191C285.427 65.6191 286.008 66.2848 286.024 67.6162V71H284.613V67.6553C284.613 67.3525 284.548 67.1296 284.418 66.9863C284.288 66.8398 284.071 66.7666 283.769 66.7666C283.355 66.7666 283.056 66.9261 282.87 67.2451V71H281.459V63.5H282.87V66.293ZM291.85 68.4072C291.85 69.2536 291.669 69.9144 291.308 70.3896C290.946 70.8617 290.442 71.0977 289.794 71.0977C289.221 71.0977 288.764 70.8779 288.422 70.4385L288.358 71H287.089V63.5H288.5V66.1904C288.826 65.8096 289.254 65.6191 289.784 65.6191C290.429 65.6191 290.933 65.8568 291.298 66.332C291.666 66.804 291.85 67.4697 291.85 68.3291V68.4072ZM290.438 68.3047C290.438 67.7708 290.354 67.3818 290.185 67.1377C290.015 66.8903 289.763 66.7666 289.428 66.7666C288.979 66.7666 288.669 66.9505 288.5 67.3184V69.4033C288.673 69.7744 288.985 69.96 289.438 69.96C289.893 69.96 290.193 69.7354 290.336 69.2861C290.404 69.0713 290.438 68.7441 290.438 68.3047ZM295.785 71C295.72 70.873 295.673 70.7152 295.644 70.5264C295.302 70.9072 294.857 71.0977 294.311 71.0977C293.793 71.0977 293.363 70.9479 293.021 70.6484C292.683 70.349 292.514 69.9714 292.514 69.5156C292.514 68.9557 292.72 68.526 293.134 68.2266C293.55 67.9271 294.151 67.7757 294.936 67.7725H295.585V67.4697C295.585 67.2256 295.521 67.0303 295.395 66.8838C295.271 66.7373 295.074 66.6641 294.804 66.6641C294.566 66.6641 294.379 66.721 294.242 66.835C294.109 66.9489 294.042 67.1051 294.042 67.3037H292.631C292.631 66.9977 292.725 66.7145 292.914 66.4541C293.103 66.1937 293.37 65.9902 293.715 65.8438C294.06 65.694 294.447 65.6191 294.877 65.6191C295.528 65.6191 296.044 65.7835 296.425 66.1123C296.809 66.4378 297.001 66.8968 297.001 67.4893V69.7793C297.004 70.2806 297.074 70.6598 297.211 70.917V71H295.785ZM294.618 70.0186C294.826 70.0186 295.019 69.973 295.194 69.8818C295.37 69.7874 295.5 69.6621 295.585 69.5059V68.5977H295.058C294.351 68.5977 293.975 68.8418 293.93 69.3301L293.925 69.4131C293.925 69.5889 293.987 69.7337 294.11 69.8477C294.234 69.9616 294.403 70.0186 294.618 70.0186ZM300.282 69.96C300.543 69.96 300.754 69.8883 300.917 69.7451C301.08 69.6019 301.164 69.4115 301.171 69.1738H302.494C302.491 69.5319 302.393 69.8607 302.201 70.1602C302.009 70.4564 301.745 70.6875 301.41 70.8535C301.078 71.0163 300.71 71.0977 300.307 71.0977C299.551 71.0977 298.956 70.8584 298.52 70.3799C298.083 69.8981 297.865 69.234 297.865 68.3877V68.2949C297.865 67.4811 298.082 66.8317 298.515 66.3467C298.948 65.8617 299.542 65.6191 300.297 65.6191C300.958 65.6191 301.487 65.8079 301.884 66.1855C302.284 66.5599 302.488 67.0596 302.494 67.6846H301.171C301.164 67.4111 301.08 67.1898 300.917 67.0205C300.754 66.848 300.539 66.7617 300.272 66.7617C299.944 66.7617 299.695 66.8822 299.525 67.123C299.359 67.3607 299.276 67.748 299.276 68.2852V68.4316C299.276 68.9753 299.359 69.3659 299.525 69.6035C299.691 69.8411 299.944 69.96 300.282 69.96ZM305.219 68.8809L304.711 69.3887V71H303.3V63.5H304.711V67.6553L304.984 67.3037L306.337 65.7168H308.031L306.122 67.9189L308.197 71H306.576L305.219 68.8809Z" fill="#4A4A4A"/>
<path d="M279.263 80.0073C279.263 80.6343 279.158 81.1821 278.947 81.6509C278.736 82.1167 278.437 82.4727 278.05 82.7188C277.664 82.9648 277.212 83.0879 276.697 83.0879C276.193 83.0879 275.746 82.9648 275.356 82.7188C274.967 82.4697 274.664 82.1167 274.447 81.6597C274.233 81.1997 274.123 80.668 274.117 80.0645V79.603C274.117 78.9878 274.224 78.4443 274.438 77.9727C274.652 77.501 274.954 77.1406 275.343 76.8916C275.736 76.6396 276.184 76.5137 276.688 76.5137C277.201 76.5137 277.652 76.6382 278.042 76.8872C278.434 77.1333 278.736 77.4922 278.947 77.9639C279.158 78.4326 279.263 78.979 279.263 79.603V80.0073ZM278.424 79.5942C278.424 78.8354 278.271 78.2539 277.967 77.8496C277.662 77.4424 277.236 77.2388 276.688 77.2388C276.155 77.2388 275.734 77.4424 275.427 77.8496C275.122 78.2539 274.965 78.8164 274.957 79.5371V80.0073C274.957 80.7427 275.11 81.3213 275.418 81.7432C275.729 82.1621 276.155 82.3716 276.697 82.3716C277.242 82.3716 277.664 82.1738 277.962 81.7783C278.261 81.3799 278.415 80.8101 278.424 80.0688V79.5942ZM280.801 83V78.8735H280.05V78.2451H280.801V77.7573C280.801 77.2476 280.938 76.8535 281.21 76.5752C281.482 76.2969 281.868 76.1577 282.366 76.1577C282.553 76.1577 282.739 76.1826 282.924 76.2324L282.88 76.8916C282.742 76.8652 282.596 76.8521 282.44 76.8521C282.177 76.8521 281.973 76.9297 281.83 77.085C281.686 77.2373 281.614 77.457 281.614 77.7441V78.2451H282.629V78.8735H281.614V83H280.801ZM283.93 83V78.8735H283.179V78.2451H283.93V77.7573C283.93 77.2476 284.066 76.8535 284.339 76.5752C284.611 76.2969 284.997 76.1577 285.495 76.1577C285.682 76.1577 285.868 76.1826 286.053 76.2324L286.009 76.8916C285.871 76.8652 285.725 76.8521 285.569 76.8521C285.306 76.8521 285.102 76.9297 284.958 77.085C284.815 77.2373 284.743 77.457 284.743 77.7441V78.2451H285.758V78.8735H284.743V83H283.93ZM288.527 83.0879C287.882 83.0879 287.358 82.877 286.954 82.4551C286.549 82.0303 286.347 81.4634 286.347 80.7544V80.605C286.347 80.1333 286.437 79.7129 286.615 79.3438C286.797 78.9717 287.049 78.6816 287.371 78.4736C287.696 78.2627 288.048 78.1572 288.426 78.1572C289.044 78.1572 289.524 78.3608 289.867 78.7681C290.21 79.1753 290.381 79.7583 290.381 80.5171V80.8555H287.16C287.172 81.3242 287.308 81.7036 287.569 81.9937C287.833 82.2808 288.167 82.4243 288.571 82.4243C288.858 82.4243 289.101 82.3657 289.3 82.2485C289.5 82.1313 289.674 81.9761 289.823 81.7827L290.32 82.1694C289.921 82.7817 289.324 83.0879 288.527 83.0879ZM288.426 78.8252C288.098 78.8252 287.822 78.9453 287.6 79.1855C287.377 79.4229 287.239 79.7568 287.187 80.1875H289.568V80.126C289.545 79.7129 289.434 79.3936 289.234 79.168C289.035 78.9395 288.766 78.8252 288.426 78.8252ZM293.625 78.9746C293.501 78.9541 293.368 78.9438 293.225 78.9438C292.691 78.9438 292.33 79.1709 292.139 79.625V83H291.326V78.2451H292.117L292.13 78.7944C292.397 78.3696 292.775 78.1572 293.264 78.1572C293.422 78.1572 293.542 78.1777 293.625 78.2188V78.9746ZM297.145 81.7388C297.145 81.519 297.061 81.3491 296.894 81.229C296.73 81.106 296.441 81.0005 296.028 80.9126C295.618 80.8247 295.292 80.7192 295.048 80.5962C294.808 80.4731 294.629 80.3267 294.512 80.1567C294.398 79.9868 294.341 79.7847 294.341 79.5503C294.341 79.1606 294.505 78.8311 294.833 78.5615C295.164 78.292 295.586 78.1572 296.099 78.1572C296.638 78.1572 297.074 78.2964 297.408 78.5747C297.745 78.853 297.914 79.209 297.914 79.6426H297.096C297.096 79.4199 297.001 79.228 296.811 79.0669C296.623 78.9058 296.386 78.8252 296.099 78.8252C295.803 78.8252 295.571 78.8896 295.404 79.0186C295.237 79.1475 295.154 79.3159 295.154 79.5239C295.154 79.7202 295.231 79.8682 295.387 79.9678C295.542 80.0674 295.822 80.1626 296.226 80.2534C296.633 80.3442 296.963 80.4526 297.215 80.5786C297.467 80.7046 297.653 80.8569 297.773 81.0356C297.896 81.2114 297.958 81.4268 297.958 81.6816C297.958 82.1064 297.788 82.4478 297.448 82.7056C297.108 82.9604 296.667 83.0879 296.125 83.0879C295.744 83.0879 295.407 83.0205 295.114 82.8857C294.821 82.751 294.591 82.5635 294.424 82.3232C294.26 82.0801 294.178 81.8179 294.178 81.5366H294.991C295.006 81.8091 295.114 82.0259 295.316 82.187C295.521 82.3452 295.791 82.4243 296.125 82.4243C296.433 82.4243 296.679 82.3628 296.863 82.2397C297.051 82.1138 297.145 81.9468 297.145 81.7388Z" fill="#828282"/>
</svg>
